# xmcd CD database file
#
# Track frame offsets:
#	150
#	11065
#	26088
#	40760
#	63115
#	76092
#	89203
#	99795
#	112773
#	128904
#	141685
#	151656
#	177891
#	189026
#	201210
#	217151
#	243495
#	260205
#
# Disc length: 3636 seconds
#
# Revision: 0
# Processed by: cddbd v1.5.1PL0 Copyright (c) Steve Scherf et al.
# Submitted via: CDex 1.51
#
DISCID=f40e3212
DTITLE=Various Artist - A Night with Latin Jazz
DYEAR=1900
DGENRE=Jazz
TTITLE0=Eliza Soares - Mas que Nada
TTITLE1=Cariocas de Rio - The Girl from Ipanema
TTITLE2=Cheo Feliciano - Oye Como Va
TTITLE3=Mongo Santamaria - Smooth Operator
TTITLE4=Antonio Carlos Jobim - Agua de Beber
TTITLE5=La Plata Sextte - Guantanamera
TTITLE6=Trio Los Panchos - Historia de Un Amor
TTITLE7=Nat King Cole - Besame Mucho
TTITLE8=Stan Getz - Double Rainbow
TTITLE9=George Shearing - Without You
TTITLE10=Ella Fitzgerald  - Desafinado
TTITLE11=George Benson - Little Train
TTITLE12=Cortijo y Su Combo - Tequila
TTITLE13=Milton Banana - Primitivo
TTITLE14=Duke Pearson - Sandalia Dela
TTITLE15=Grant Green - Mambo Inn
TTITLE16=Clair Fischer - Quiet Night
TTITLE17=Charlie Palmieri - Lullaby of Birdland
EXTD=
EXTT0=
EXTT1=
EXTT2=
EXTT3=
EXTT4=
EXTT5=
EXTT6=
EXTT7=
EXTT8=
EXTT9=
EXTT10=
EXTT11=
EXTT12=
EXTT13=
EXTT14=
EXTT15=
EXTT16=
EXTT17=
PLAYORDER=
